<svg xmlns="http://www.w3.org/2000/svg" viewBox="546 -45 391 391" fill="none">
<path d="M913.998 0H569.729C557.025 0 546.727 10.439 546.727 23.3161V276.684C546.727 289.561 557.025 300 569.729 300H913.998C926.702 300 937.001 289.561 937.001 276.684V23.3161C937.001 10.439 926.702 0 913.998 0Z" fill="#0077FF"/>
<path d="M564.711 199.92C564.711 186.505 567.4 174.786 572.777 164.763C578.309 154.74 585.914 147.031 595.594 141.634C605.428 136.237 616.644 133.538 629.243 133.538C645.376 133.538 658.821 137.779 669.576 146.26C680.485 154.74 684.508 167.915 687.888 183.335H649.064C645.53 173.466 638.693 167.307 628.552 167.307C621.33 167.307 615.569 170.16 611.266 175.865C606.964 181.416 604.813 189.435 604.813 199.92C604.813 210.405 606.964 218.501 611.266 224.206C615.569 229.757 621.33 232.533 628.552 232.533C638.693 232.533 645.53 226.537 649.064 216.668H687.888C684.508 231.779 680.485 244.714 669.576 253.349C658.667 261.984 645.223 266.302 629.243 266.302C616.644 266.302 605.428 263.603 595.594 258.207C585.914 252.81 578.309 245.1 572.777 235.077C567.4 225.054 564.711 213.335 564.711 199.92ZM791.143 134.001C805.893 134.001 817.724 138.935 826.636 148.804C835.547 158.518 840.003 171.933 840.003 189.049V266.668H800.823V194.369C800.823 185.734 798.595 179.026 794.139 174.246C789.683 169.466 783.691 167.076 776.162 167.076C768.633 167.076 762.641 169.466 758.185 174.246C753.729 179.026 751.502 185.734 751.502 194.369V266.668H712.091V93.293H751.502V152.736C755.496 147.031 760.951 142.482 767.865 139.089C774.779 135.697 782.539 134.001 791.143 134.001ZM906.802 133.335V266.668H867.391V133.335H906.802Z" fill="white"/>
<path d="M854.477 84.1296C853.811 83.9962 853.781 82.8281 854.436 82.662C859.941 81.2695 870.305 78.0546 875.847 72.5334C881.644 66.7568 884.908 55.7218 886.193 50.4764C886.347 49.8466 887.388 49.8393 887.554 50.4662C888.975 55.824 892.549 67.2607 898.382 73.0722C904.114 78.7836 914.715 81.7344 919.894 82.8917C920.531 83.0343 920.566 84.0876 919.936 84.2663C914.763 85.7366 904.09 89.2978 898.382 94.9843C892.763 100.584 889.207 110.976 887.691 116.215C887.507 116.85 886.413 116.803 886.282 116.154C885.2 110.647 882.393 99.5286 876.566 93.7268C870.888 88.0693 860.132 85.2662 854.477 84.1296Z" fill="white"/>
</svg>
