<svg width="937" height="300" viewBox="0 0 937 300" fill="none" xmlns="http://www.w3.org/2000/svg">
<path d="M82.509 266.537L48.8599 205.244H39.4105V266.537H-0.000348437V104.168H66.1454C78.8982 104.168 89.7305 106.404 98.6421 110.876C107.707 115.347 114.468 121.515 118.924 129.379C123.38 137.089 125.607 145.724 125.607 155.284C125.607 166.078 122.534 175.715 116.389 184.196C110.396 192.677 101.485 198.691 89.6537 202.237L126.99 266.537H82.509ZM39.4105 177.257H63.8407C71.0622 177.257 76.4399 175.484 79.9738 171.938C83.6614 168.391 85.5051 163.38 85.5051 156.903C85.5051 150.735 83.6614 145.878 79.9738 142.332C76.4399 138.785 71.0622 137.012 63.8407 137.012H39.4105V177.257ZM208.887 268.388C196.288 268.388 184.918 265.689 174.777 260.292C164.79 254.895 156.877 247.186 151.039 237.163C145.354 227.14 142.511 215.421 142.511 202.006C142.511 188.745 145.43 177.103 151.269 167.08C157.108 156.903 165.097 149.116 175.238 143.719C185.379 138.323 196.749 135.624 209.348 135.624C221.947 135.624 233.317 138.323 243.458 143.719C253.599 149.116 261.589 156.903 267.427 167.08C273.266 177.103 276.185 188.745 276.185 202.006C276.185 215.267 273.189 226.986 267.197 237.163C261.358 247.186 253.292 254.895 242.997 260.292C232.857 265.689 221.486 268.388 208.887 268.388ZM208.887 234.156C216.416 234.156 222.793 231.38 228.017 225.829C233.394 220.278 236.083 212.337 236.083 202.006C236.083 191.675 233.471 183.734 228.247 178.182C223.177 172.631 216.877 169.856 209.348 169.856C201.666 169.856 195.289 172.631 190.219 178.182C185.149 183.579 182.613 191.52 182.613 202.006C182.613 212.337 185.072 220.278 189.989 225.829C195.059 231.38 201.359 234.156 208.887 234.156ZM461.191 136.087C477.17 136.087 489.846 140.944 499.219 150.658C508.745 160.373 513.508 173.865 513.508 191.135V266.537H474.328V196.455C474.328 188.128 472.1 181.729 467.644 177.257C463.342 172.631 457.35 170.318 449.667 170.318C441.985 170.318 435.916 172.631 431.46 177.257C427.158 181.729 425.006 188.128 425.006 196.455V266.537H385.826V196.455C385.826 188.128 383.598 181.729 379.142 177.257C374.84 172.631 368.848 170.318 361.165 170.318C353.483 170.318 347.414 172.631 342.958 177.257C338.656 181.729 336.505 188.128 336.505 196.455V266.668H297.612V204.168V137.475H336.505V153.665C340.5 148.268 345.724 144.028 352.177 140.944C358.63 137.706 365.929 136.087 374.072 136.087C383.752 136.087 392.356 138.168 399.885 142.332C407.567 146.495 413.56 152.432 417.862 160.141C422.318 153.048 428.387 147.266 436.069 142.794C443.752 138.323 452.125 136.087 461.191 136.087Z" fill="black"/>
<path d="M913.998 0H569.729C557.025 0 546.727 10.439 546.727 23.3161V276.684C546.727 289.561 557.025 300 569.729 300H913.998C926.702 300 937.001 289.561 937.001 276.684V23.3161C937.001 10.439 926.702 0 913.998 0Z" fill="#0077FF"/>
<path d="M564.711 199.92C564.711 186.505 567.4 174.786 572.777 164.763C578.309 154.74 585.914 147.031 595.594 141.634C605.428 136.237 616.644 133.538 629.243 133.538C645.376 133.538 658.821 137.779 669.576 146.26C680.485 154.74 684.508 167.915 687.888 183.335H649.064C645.53 173.466 638.693 167.307 628.552 167.307C621.33 167.307 615.569 170.16 611.266 175.865C606.964 181.416 604.813 189.435 604.813 199.92C604.813 210.405 606.964 218.501 611.266 224.206C615.569 229.757 621.33 232.533 628.552 232.533C638.693 232.533 645.53 226.537 649.064 216.668H687.888C684.508 231.779 680.485 244.714 669.576 253.349C658.667 261.984 645.223 266.302 629.243 266.302C616.644 266.302 605.428 263.603 595.594 258.207C585.914 252.81 578.309 245.1 572.777 235.077C567.4 225.054 564.711 213.335 564.711 199.92ZM791.143 134.001C805.893 134.001 817.724 138.935 826.636 148.804C835.547 158.518 840.003 171.933 840.003 189.049V266.668H800.823V194.369C800.823 185.734 798.595 179.026 794.139 174.246C789.683 169.466 783.691 167.076 776.162 167.076C768.633 167.076 762.641 169.466 758.185 174.246C753.729 179.026 751.502 185.734 751.502 194.369V266.668H712.091V93.293H751.502V152.736C755.496 147.031 760.951 142.482 767.865 139.089C774.779 135.697 782.539 134.001 791.143 134.001ZM906.802 133.335V266.668H867.391V133.335H906.802Z" fill="white"/>
<path d="M854.477 84.1296C853.811 83.9962 853.781 82.8281 854.436 82.662C859.941 81.2695 870.305 78.0546 875.847 72.5334C881.644 66.7568 884.908 55.7218 886.193 50.4764C886.347 49.8466 887.388 49.8393 887.554 50.4662C888.975 55.824 892.549 67.2607 898.382 73.0722C904.114 78.7836 914.715 81.7344 919.894 82.8917C920.531 83.0343 920.566 84.0876 919.936 84.2663C914.763 85.7366 904.09 89.2978 898.382 94.9843C892.763 100.584 889.207 110.976 887.691 116.215C887.507 116.85 886.413 116.803 886.282 116.154C885.2 110.647 882.393 99.5286 876.566 93.7268C870.888 88.0693 860.132 85.2662 854.477 84.1296Z" fill="white"/>
</svg>
